<mxfile host="app.diagrams.net" modified="2023-01-18T02:28:31.876Z" agent="5.0 (Macintosh; Intel Mac OS X 10_15_7) AppleWebKit/605.1.15 (KHTML, like Gecko) Version/16.1 Safari/605.1.15" etag="lVTKf7b34oRtKPt9y9UI" version="20.8.5" type="github">
  <diagram id="cIocRG3YWbsBwmVIDkIY" name="Page-1">
    <mxGraphModel dx="954" dy="675" grid="1" gridSize="10" guides="1" tooltips="1" connect="1" arrows="1" fold="1" page="1" pageScale="1" pageWidth="850" pageHeight="1100" math="0" shadow="0">
      <root>
        <mxCell id="0" />
        <mxCell id="1" parent="0" />
        <mxCell id="WhMrlDEJ-pQV7aeqUwDS-1" value="file name: home.tsx&lt;br&gt;path: src/webapp/app/modules/home/&lt;br&gt;&amp;lt;a&amp;gt; tag with href = &quot;./document/view&quot;" style="rounded=1;whiteSpace=wrap;html=1;fillColor=#dae8fc;strokeColor=#6c8ebf;" parent="1" vertex="1">
          <mxGeometry x="335" y="100" width="180" height="100" as="geometry" />
        </mxCell>
        <mxCell id="WhMrlDEJ-pQV7aeqUwDS-2" value="" style="shape=flexArrow;endArrow=classic;html=1;rounded=0;fillColor=#ffe6cc;strokeColor=#d79b00;" parent="1" edge="1">
          <mxGeometry width="50" height="50" relative="1" as="geometry">
            <mxPoint x="400" y="200" as="sourcePoint" />
            <mxPoint x="400" y="251" as="targetPoint" />
          </mxGeometry>
        </mxCell>
        <mxCell id="WhMrlDEJ-pQV7aeqUwDS-4" value="file name: routes.tsx&lt;br&gt;path:&lt;br&gt;src/webapp/app/entities/&lt;br&gt;&amp;lt;Route&amp;gt; tag" style="rounded=1;whiteSpace=wrap;html=1;fillColor=#dae8fc;strokeColor=#6c8ebf;" parent="1" vertex="1">
          <mxGeometry x="340" y="250" width="175" height="90" as="geometry" />
        </mxCell>
        <mxCell id="WhMrlDEJ-pQV7aeqUwDS-5" value="file name: &amp;nbsp;document view&lt;br&gt;path:&lt;br&gt;src/webapp/app/entities/documentview/&lt;br&gt;" style="rounded=1;whiteSpace=wrap;html=1;fillColor=#dae8fc;strokeColor=#6c8ebf;" parent="1" vertex="1">
          <mxGeometry x="313" y="400" width="225" height="120" as="geometry" />
        </mxCell>
        <mxCell id="WhMrlDEJ-pQV7aeqUwDS-6" value="" style="shape=flexArrow;endArrow=classic;html=1;rounded=0;fillColor=#ffe6cc;strokeColor=#d79b00;" parent="1" edge="1">
          <mxGeometry width="50" height="50" relative="1" as="geometry">
            <mxPoint x="400" y="340" as="sourcePoint" />
            <mxPoint x="400" y="400" as="targetPoint" />
          </mxGeometry>
        </mxCell>
        <mxCell id="WhMrlDEJ-pQV7aeqUwDS-7" value="This is where we implement tinymce editor for single document" style="shape=callout;whiteSpace=wrap;html=1;perimeter=calloutPerimeter;position2=0;fillColor=#f8cecc;strokeColor=#b85450;" parent="1" vertex="1">
          <mxGeometry x="550" y="340" width="130" height="120" as="geometry" />
        </mxCell>
        <mxCell id="WhMrlDEJ-pQV7aeqUwDS-8" value="" style="shape=flexArrow;endArrow=classic;html=1;rounded=0;width=12;endSize=4.67;fillColor=#ffe6cc;strokeColor=#d79b00;" parent="1" edge="1">
          <mxGeometry width="50" height="50" relative="1" as="geometry">
            <mxPoint x="460" y="250" as="sourcePoint" />
            <mxPoint x="460" y="200" as="targetPoint" />
          </mxGeometry>
        </mxCell>
        <mxCell id="WhMrlDEJ-pQV7aeqUwDS-9" value="" style="shape=flexArrow;endArrow=classic;html=1;rounded=0;exitX=0.693;exitY=-0.017;exitDx=0;exitDy=0;exitPerimeter=0;fillColor=#ffe6cc;strokeColor=#d79b00;" parent="1" source="WhMrlDEJ-pQV7aeqUwDS-5" edge="1">
          <mxGeometry width="50" height="50" relative="1" as="geometry">
            <mxPoint x="460" y="390" as="sourcePoint" />
            <mxPoint x="469" y="340" as="targetPoint" />
          </mxGeometry>
        </mxCell>
        <mxCell id="WhMrlDEJ-pQV7aeqUwDS-10" value="file name: documentList&lt;br&gt;path:&lt;br&gt;src/webapp/app/entities/documentview/" style="rounded=1;whiteSpace=wrap;html=1;fillColor=#dae8fc;strokeColor=#6c8ebf;" parent="1" vertex="1">
          <mxGeometry x="320" y="580" width="220" height="110" as="geometry" />
        </mxCell>
        <mxCell id="WhMrlDEJ-pQV7aeqUwDS-11" value="" style="shape=flexArrow;endArrow=classic;html=1;rounded=0;exitX=0.314;exitY=-0.009;exitDx=0;exitDy=0;exitPerimeter=0;fillColor=#ffe6cc;strokeColor=#d79b00;" parent="1" source="WhMrlDEJ-pQV7aeqUwDS-10" edge="1">
          <mxGeometry width="50" height="50" relative="1" as="geometry">
            <mxPoint x="390" y="575" as="sourcePoint" />
            <mxPoint x="389" y="520" as="targetPoint" />
          </mxGeometry>
        </mxCell>
        <mxCell id="WhMrlDEJ-pQV7aeqUwDS-12" value="" style="shape=flexArrow;endArrow=classic;html=1;rounded=0;fillColor=#ffe6cc;strokeColor=#d79b00;" parent="1" edge="1">
          <mxGeometry width="50" height="50" relative="1" as="geometry">
            <mxPoint x="470" y="520" as="sourcePoint" />
            <mxPoint x="470" y="580" as="targetPoint" />
          </mxGeometry>
        </mxCell>
        <mxCell id="WhMrlDEJ-pQV7aeqUwDS-13" value="file name: &amp;nbsp;DocumentRepository&lt;br&gt;path:&lt;br&gt;src/main/java/repository/" style="rounded=1;whiteSpace=wrap;html=1;fillColor=#d5e8d4;strokeColor=#82b366;" parent="1" vertex="1">
          <mxGeometry x="785" y="240" width="220" height="100" as="geometry" />
        </mxCell>
        <mxCell id="WhMrlDEJ-pQV7aeqUwDS-14" value="file name : DocumentResource&lt;br&gt;Path:&lt;br&gt;src/main/java/com./web.rest/" style="rounded=1;whiteSpace=wrap;html=1;fillColor=#d5e8d4;strokeColor=#82b366;" parent="1" vertex="1">
          <mxGeometry x="780" y="580" width="220" height="110" as="geometry" />
        </mxCell>
        <mxCell id="WhMrlDEJ-pQV7aeqUwDS-15" value="" style="shape=flexArrow;endArrow=classic;html=1;rounded=0;exitX=0.314;exitY=-0.009;exitDx=0;exitDy=0;exitPerimeter=0;fillColor=#fff2cc;strokeColor=#d6b656;" parent="1" edge="1">
          <mxGeometry width="50" height="50" relative="1" as="geometry">
            <mxPoint x="710.0799999999999" y="670.01" as="sourcePoint" />
            <mxPoint x="610" y="670" as="targetPoint" />
          </mxGeometry>
        </mxCell>
        <mxCell id="WhMrlDEJ-pQV7aeqUwDS-16" value="" style="shape=flexArrow;endArrow=classic;html=1;rounded=0;fillColor=#fff2cc;strokeColor=#d6b656;" parent="1" edge="1">
          <mxGeometry width="50" height="50" relative="1" as="geometry">
            <mxPoint x="620" y="620" as="sourcePoint" />
            <mxPoint x="720" y="620" as="targetPoint" />
          </mxGeometry>
        </mxCell>
        <mxCell id="WhMrlDEJ-pQV7aeqUwDS-17" value="Here is where frontend connect to backend.&lt;br&gt;documentList send request and get response from DocumentResource(Controller)" style="shape=callout;whiteSpace=wrap;html=1;perimeter=calloutPerimeter;position2=0;fillColor=#f8cecc;strokeColor=#b85450;" parent="1" vertex="1">
          <mxGeometry x="560" y="480" width="170" height="150" as="geometry" />
        </mxCell>
        <mxCell id="WhMrlDEJ-pQV7aeqUwDS-18" value="file name: &amp;nbsp;DocumentService&lt;br&gt;path:&lt;br&gt;src/main/java/com./service/" style="rounded=1;whiteSpace=wrap;html=1;fillColor=#d5e8d4;strokeColor=#82b366;" parent="1" vertex="1">
          <mxGeometry x="780" y="400" width="230" height="120" as="geometry" />
        </mxCell>
        <mxCell id="WhMrlDEJ-pQV7aeqUwDS-19" value="" style="shape=flexArrow;endArrow=classic;html=1;rounded=0;exitX=0.314;exitY=-0.009;exitDx=0;exitDy=0;exitPerimeter=0;fillColor=#fff2cc;strokeColor=#d6b656;" parent="1" edge="1">
          <mxGeometry width="50" height="50" relative="1" as="geometry">
            <mxPoint x="860.0799999999999" y="580" as="sourcePoint" />
            <mxPoint x="860" y="520.99" as="targetPoint" />
          </mxGeometry>
        </mxCell>
        <mxCell id="WhMrlDEJ-pQV7aeqUwDS-20" value="" style="shape=flexArrow;endArrow=classic;html=1;rounded=0;fillColor=#fff2cc;strokeColor=#d6b656;" parent="1" edge="1">
          <mxGeometry width="50" height="50" relative="1" as="geometry">
            <mxPoint x="950" y="520" as="sourcePoint" />
            <mxPoint x="950" y="580" as="targetPoint" />
          </mxGeometry>
        </mxCell>
        <mxCell id="WhMrlDEJ-pQV7aeqUwDS-21" value="" style="shape=flexArrow;endArrow=classic;html=1;rounded=0;exitX=0.314;exitY=-0.009;exitDx=0;exitDy=0;exitPerimeter=0;fillColor=#fff2cc;strokeColor=#d6b656;" parent="1" edge="1">
          <mxGeometry width="50" height="50" relative="1" as="geometry">
            <mxPoint x="850.0799999999999" y="400" as="sourcePoint" />
            <mxPoint x="850" y="340.99" as="targetPoint" />
          </mxGeometry>
        </mxCell>
        <mxCell id="WhMrlDEJ-pQV7aeqUwDS-22" value="" style="shape=flexArrow;endArrow=classic;html=1;rounded=0;fillColor=#fff2cc;strokeColor=#d6b656;" parent="1" edge="1">
          <mxGeometry width="50" height="50" relative="1" as="geometry">
            <mxPoint x="950" y="340" as="sourcePoint" />
            <mxPoint x="950" y="400" as="targetPoint" />
          </mxGeometry>
        </mxCell>
        <mxCell id="WhMrlDEJ-pQV7aeqUwDS-23" value="" style="shape=flexArrow;endArrow=classic;html=1;rounded=0;fillColor=#fff2cc;strokeColor=#d6b656;exitX=0.5;exitY=0;exitDx=0;exitDy=0;" parent="1" target="WhMrlDEJ-pQV7aeqUwDS-24" edge="1" source="WhMrlDEJ-pQV7aeqUwDS-13">
          <mxGeometry width="50" height="50" relative="1" as="geometry">
            <mxPoint x="850" y="1010" as="sourcePoint" />
            <mxPoint x="434.5" y="1250" as="targetPoint" />
          </mxGeometry>
        </mxCell>
        <mxCell id="WhMrlDEJ-pQV7aeqUwDS-24" value="DataBase" style="shape=cylinder3;whiteSpace=wrap;html=1;boundedLbl=1;backgroundOutline=1;size=15;fillColor=#f5f5f5;strokeColor=#666666;fontColor=#333333;" parent="1" vertex="1">
          <mxGeometry x="800" y="100" width="190" height="80" as="geometry" />
        </mxCell>
      </root>
    </mxGraphModel>
  </diagram>
</mxfile>
